<svg width="21" height="21" viewBox="0 0 21 21" fill="none" xmlns="http://www.w3.org/2000/svg">
<path d="M10.4357 20.8387C4.83277 20.8387 0.274414 16.2803 0.274414 10.6774C0.274414 5.07447 4.83277 0.516113 10.4357 0.516113C16.0386 0.516113 20.597 5.07447 20.597 10.6774C20.597 13.3773 19.5494 15.9196 17.6462 17.836L16.2043 16.4053C17.7264 14.871 18.5647 12.8377 18.5647 10.6774C18.5647 6.19526 14.9178 2.54837 10.4357 2.54837C5.95356 2.54837 2.30667 6.19526 2.30667 10.6774C2.30667 15.1595 5.95356 18.8064 10.4357 18.8064C11.9782 18.8064 13.479 18.3725 14.7756 17.5525L15.8618 19.2688C14.2401 20.2961 12.3633 20.8387 10.4357 20.8387Z" fill="#02133C"/>
<path d="M10.4356 16.7741C7.07327 16.7741 4.33887 14.0397 4.33887 10.6773C4.33887 7.31497 7.07327 4.58057 10.4356 4.58057C13.798 4.58057 16.5324 7.31497 16.5324 10.6773C16.5324 14.0397 13.798 16.7741 10.4356 16.7741ZM10.4356 6.61282C8.19406 6.61282 6.37113 8.43576 6.37113 10.6773C6.37113 12.9189 8.19406 14.7419 10.4356 14.7419C12.6772 14.7419 14.5002 12.9189 14.5002 10.6773C14.5002 8.43576 12.6772 6.61282 10.4356 6.61282Z" fill="#02133C"/>
</svg>
